<svg width="25" height="24" viewBox="0 0 25 24" fill="none" xmlns="http://www.w3.org/2000/svg">
<path fill-rule="evenodd" clip-rule="evenodd" d="M0.836914 3.57462C0.836914 1.60085 2.15691 0 3.78441 0H7.99491C9.62241 0 10.9424 1.60085 10.9424 3.57462V4.59516C10.9424 6.57076 9.62241 8.16979 7.99491 8.16979H3.78441C3.00269 8.16979 2.25298 7.79318 1.70022 7.1228C1.14745 6.45243 0.836914 5.54321 0.836914 4.59516L0.836914 3.57462ZM3.78441 3.06526C3.72926 3.06526 3.67464 3.07844 3.62369 3.10403C3.57273 3.12963 3.52643 3.16715 3.48743 3.21445C3.44843 3.26175 3.41749 3.3179 3.39638 3.3797C3.37528 3.4415 3.36441 3.50773 3.36441 3.57462V4.59516C3.36422 4.66221 3.37493 4.72864 3.39595 4.79065C3.41697 4.85266 3.44788 4.90902 3.4869 4.95651C3.52592 5.004 3.57228 5.04169 3.62334 5.0674C3.67439 5.09311 3.72913 5.10634 3.78441 5.10634H7.99491C8.05007 5.10634 8.10468 5.09317 8.15564 5.06757C8.2066 5.04197 8.2529 5.00445 8.2919 4.95716C8.3309 4.90986 8.36184 4.85371 8.38294 4.79191C8.40405 4.73011 8.41491 4.66387 8.41491 4.59698V3.57462C8.41491 3.50773 8.40405 3.4415 8.38294 3.3797C8.36184 3.3179 8.3309 3.26175 8.2919 3.21445C8.2529 3.16715 8.2066 3.12963 8.15564 3.10403C8.10468 3.07844 8.05007 3.06526 7.99491 3.06526H3.78441ZM13.0469 4.0858C13.0469 3.2399 13.6124 2.55408 14.3099 2.55408H23.5739C23.9089 2.55408 24.2301 2.71546 24.467 3.00271C24.7038 3.28997 24.8369 3.67957 24.8369 4.0858C24.8369 4.49204 24.7038 4.88164 24.467 5.16889C24.2301 5.45615 23.9089 5.61752 23.5739 5.61752H14.3099C13.9749 5.61752 13.6537 5.45615 13.4168 5.16889C13.18 4.88164 13.0469 4.49204 13.0469 4.0858ZM1.25691 13.2761C1.25691 12.4302 1.82391 11.7444 2.52141 11.7444H18.5219C18.6878 11.7444 18.852 11.784 19.0052 11.861C19.1585 11.938 19.2977 12.0508 19.415 12.193C19.5323 12.3353 19.6253 12.5041 19.6888 12.69C19.7522 12.8758 19.7849 13.075 19.7849 13.2761C19.7849 13.4773 19.7522 13.6765 19.6888 13.8623C19.6253 14.0481 19.5323 14.217 19.415 14.3592C19.2977 14.5015 19.1585 14.6143 19.0052 14.6913C18.852 14.7682 18.6878 14.8079 18.5219 14.8079H2.52141C2.35555 14.8079 2.19132 14.7682 2.03808 14.6913C1.88485 14.6143 1.74562 14.5015 1.62834 14.3592C1.51106 14.217 1.41803 14.0481 1.35455 13.8623C1.29108 13.6765 1.25691 13.4773 1.25691 13.2761ZM1.25691 22.4665C1.25691 21.6224 1.82391 20.9366 2.52141 20.9366H22.7324C22.8983 20.9366 23.0625 20.9762 23.2157 21.0532C23.369 21.1301 23.5082 21.243 23.6255 21.3852C23.7428 21.5274 23.8358 21.6963 23.8993 21.8821C23.9627 22.068 23.9954 22.2671 23.9954 22.4683C23.9954 22.6694 23.9627 22.8686 23.8993 23.0544C23.8358 23.2403 23.7428 23.4091 23.6255 23.5514C23.5082 23.6936 23.369 23.8064 23.2157 23.8834C23.0625 23.9604 22.8983 24 22.7324 24H2.52141C2.18645 24 1.8652 23.8386 1.62834 23.5514C1.39148 23.2641 1.25841 22.8745 1.25841 22.4683L1.25691 22.4665Z" fill="white"/>
</svg>
