<svg width="19" height="15" viewBox="0 0 19 15" fill="none" xmlns="http://www.w3.org/2000/svg">
<path fill-rule="evenodd" clip-rule="evenodd" d="M16.9365 11.5223C17.975 11.5223 18.8178 10.5934 18.8178 9.44892V5.73337C18.8178 4.58884 17.975 3.65996 16.9365 3.65996H9.99387C9.9843 3.53827 9.97426 3.41663 9.96377 3.29503L9.8825 2.37278C9.85377 2.04705 9.75418 1.73376 9.5922 1.45948C9.43021 1.1852 9.21061 0.958014 8.952 0.797189C8.69339 0.636365 8.4034 0.546644 8.10663 0.535637C7.80986 0.524629 7.51506 0.592659 7.24722 0.733956C4.78733 2.03259 2.56033 3.80994 0.673327 5.98052L0.524331 6.15303C0.187852 6.53996 0 7.05519 0 7.59115C0 8.1271 0.187852 8.64233 0.524331 9.02927L0.674832 9.20011C2.56128 11.3711 4.78777 13.149 7.24722 14.4483C7.51506 14.5896 7.80986 14.6577 8.10663 14.6467C8.4034 14.6356 8.69339 14.5459 8.952 14.3851C9.21061 14.2243 9.43021 13.9971 9.5922 13.7228C9.75418 13.4485 9.85377 13.1352 9.8825 12.8095L9.96377 11.8873L9.99387 11.5223H16.9365ZM8.94789 9.03424C8.66066 9.03449 8.38432 9.15541 8.17516 9.37237C7.966 9.58933 7.83976 9.88602 7.82214 10.202C7.79354 10.683 7.75893 11.1657 7.71679 11.6467L7.69271 11.9155C5.72802 10.7993 3.94088 9.33886 2.40108 7.59115C3.94081 5.84335 5.72797 4.38288 7.69271 3.26684L7.71679 3.53555C7.75893 4.01658 7.79354 4.49761 7.82214 4.9803C7.83976 5.29627 7.966 5.59296 8.17516 5.80992C8.38432 6.02688 8.66066 6.1478 8.94789 6.14805H16.5602V9.03424H8.94789Z" fill="#F8F8F8"/>
</svg>
