<svg width="10" height="19" viewBox="0 0 10 19" fill="none" xmlns="http://www.w3.org/2000/svg">
<path d="M1.4215 17.1789C1.20132 17.1789 0.990159 17.2749 0.834468 17.4456C0.678776 17.6164 0.591309 17.848 0.591309 18.0895C0.591309 18.331 0.678776 18.5626 0.834468 18.7333C0.990159 18.9041 1.20132 19 1.4215 19H8.06307C8.57682 19 9.06954 18.7762 9.43282 18.3777C9.7961 17.9793 10.0002 17.4389 10.0002 16.8754V2.30684C10.0002 1.74336 9.7961 1.20297 9.43282 0.804528C9.06954 0.406091 8.57682 0.182251 8.06307 0.182251H1.4215C1.20132 0.182251 0.990159 0.278182 0.834468 0.448941C0.678776 0.6197 0.591309 0.851299 0.591309 1.09279C0.591309 1.33428 0.678776 1.56588 0.834468 1.73663C0.990159 1.90739 1.20132 2.00332 1.4215 2.00332H8.06307C8.13646 2.00332 8.20685 2.0353 8.25875 2.09222C8.31064 2.14914 8.3398 2.22634 8.3398 2.30684V16.8754C8.3398 16.9559 8.31064 17.0331 8.25875 17.09C8.20685 17.147 8.13646 17.1789 8.06307 17.1789H1.4215Z" fill="#F8F8F8"/>
</svg>
