<svg width="25" height="24" viewBox="0 0 25 24" fill="none" xmlns="http://www.w3.org/2000/svg">
<path d="M22.8369 0H2.83691C2.30664 0.000529477 1.79824 0.211413 1.42329 0.586371C1.04833 0.961329 0.837444 1.46973 0.836914 2V22C0.837444 22.5303 1.04833 23.0387 1.42329 23.4136C1.79824 23.7886 2.30664 23.9995 2.83691 24H22.8369C23.3672 23.9995 23.8756 23.7886 24.2505 23.4136C24.6255 23.0387 24.8364 22.5303 24.8369 22V2C24.8364 1.46973 24.6255 0.961329 24.2505 0.586371C23.8756 0.211413 23.3672 0.000529477 22.8369 0ZM14.8369 2V6H10.8369V2H14.8369ZM2.83691 22V2H8.83691V8H16.8369V2H22.8369L22.8379 22H2.83691Z" fill="white"/>
</svg>
